<?xml version="1.0" standalone="no"?>
<!DOCTYPE svg PUBLIC "-//W3C//DTD SVG 20010904//EN"
 "http://www.w3.org/TR/2001/REC-SVG-20010904/DTD/svg10.dtd">
<svg version="1.0" xmlns="http://www.w3.org/2000/svg"
 width="700.000000pt" height="700.000000pt" viewBox="0 0 700.000000 700.000000"
 preserveAspectRatio="xMidYMid meet">
<metadata>
Created by potrace 1.14, written by Peter Selinger 2001-2017
</metadata>
<g transform="translate(0.000000,700.000000) scale(0.100000,-0.100000)"
fill="#000000" stroke="none">
<path d="M3391 6804 c-137 -36 -250 -137 -301 -271 -23 -58 -23 -60 -29 -383
l-1 -25 -1107 0 c-610 1 -1130 -3 -1158 -8 -113 -20 -238 -107 -298 -209 -58
-100 -60 -118 -60 -653 1 -332 4 -506 12 -539 40 -168 188 -309 351 -333 30
-5 551 -8 1157 -8 974 0 1103 -2 1104 -15 1 -19 1 -402 0 -415 -1 -7 -343 -10
-1008 -9 -743 1 -1021 -2 -1058 -11 -122 -29 -194 -85 -314 -247 -51 -68 -97
-130 -104 -138 -89 -112 -279 -374 -289 -401 -19 -44 -15 -126 7 -168 22 -43
461 -628 495 -660 45 -43 125 -89 184 -106 53 -15 153 -17 1072 -17 936 0
1014 -1 1015 -16 0 -10 1 -502 1 -1094 l1 -1078 437 0 437 0 1 1078 c0 592 1
1084 1 1093 1 16 90 17 1119 17 614 0 1133 3 1152 6 59 10 173 72 222 121 51
52 99 135 118 205 17 61 17 1003 1 1074 -40 168 -178 304 -342 334 -25 5 -536
9 -1135 10 -599 0 -1100 1 -1114 1 l-25 1 2 187 c1 104 2 202 2 218 l1 30
1003 1 c551 0 1018 3 1037 7 89 17 153 48 217 105 61 55 499 643 516 693 16
47 14 107 -5 154 -16 40 -451 618 -505 671 -49 49 -128 90 -204 107 -41 10
-307 12 -1059 12 l-1005 0 1 150 c1 171 -11 242 -57 322 -97 169 -300 255
-488 207z m2550 -1163 c18 -25 36 -48 39 -51 3 -3 30 -39 60 -80 29 -41 56
-77 59 -80 7 -6 114 -149 125 -167 7 -12 -11 -46 -45 -88 -10 -11 -62 -81
-118 -155 -55 -74 -111 -148 -123 -164 -13 -16 -25 -32 -28 -36 -3 -5 -1137
-7 -2520 -6 l-2515 1 0 430 c-1 238 3 433 8 436 5 4 1138 6 2517 6 l2508 0 33
-46z m184 -2579 l0 -437 -2517 0 c-1384 0 -2518 2 -2520 5 -172 228 -319 431
-316 438 1 4 75 104 162 220 l160 212 2515 0 2516 0 0 -438z"/>
</g>
</svg>
